<?xml version="1.0" encoding="UTF-8"?><svg id="Layer_2" xmlns="http://www.w3.org/2000/svg" viewBox="0 0 1980.53 209.49"><defs><style>.cls-1{fill:none;}.cls-1,.cls-2{stroke:#fff;stroke-miterlimit:10;stroke-width:5px;}</style></defs><g id="Layer_3"><g><path class="cls-2" d="m229.17,200.73h-44.86S47.92,64.99,47.92,64.99l3.49,135.74H2.5s0-191.97,0-191.97h45.99s135.25,131.19,135.25,131.19l-3.49-131.19h48.92s0,191.97,0,191.97Z"/><path class="cls-2" d="m376.78,206.99c-67.4,0-123.43-37.26-123.43-102.39,0-64.85,56.03-102.1,123.43-102.1,67.4,0,123.43,37.26,123.43,102.1,0,65.13-56.03,102.39-123.43,102.39Zm0-172.27c-48.06,0-71.31,32.34-71.31,69.88,0,37.54,23.24,69.88,71.31,69.88,48.06,0,71.31-32.34,71.31-69.88,0-37.54-23.24-69.88-71.31-69.88Z"/><path class="cls-2" d="m701.04,44.72h-79.67s1.75,156.02,1.75,156.02h-46.36s1.75-156.02,1.75-156.02h-79.67s0-35.96,0-35.96h202.21s0,35.96,0,35.96Z"/><path class="cls-2" d="m826.28,206.99c-67.4,0-123.43-37.26-123.43-102.39,0-64.85,56.03-102.1,123.43-102.1,67.4,0,123.43,37.26,123.43,102.1,0,65.13-56.03,102.39-123.43,102.39Zm0-172.27c-48.06,0-71.31,32.34-71.31,69.88,0,37.54,23.24,69.88,71.31,69.88,48.06,0,71.31-32.34,71.31-69.88,0-37.54-23.24-69.88-71.31-69.88Z"/><path class="cls-2" d="m1186.65,200.73h-52.35s-62.51-73.38-62.51-73.38h-51.64s0,73.38,0,73.38h-46.36s0-191.97,0-191.97h0c94.08-6.26,199.85-13.47,199.85,59.6,0,35.07-31.9,50.23-50.79,56.13l63.8,76.25Zm-166.5-162.57s0,40.54,0,58.41c51.53,0,112.19,2.61,112.25-29.23.08-42.68-112.26-29.18-112.25-29.18Z"/><path class="cls-2" d="m1263.04,200.73h-46.64s0-191.97,0-191.97h46.64s0,191.97,0,191.97Z"/><path class="cls-2" d="m1413.78,206.99c-67.4,0-123.43-37.26-123.43-102.39,0-64.85,56.03-102.1,123.43-102.1,67.41,0,123.43,37.26,123.43,102.1,0,65.13-56.03,102.39-123.43,102.39Zm0-172.27c-48.06,0-71.31,32.34-71.31,69.88,0,37.54,23.24,69.88,71.31,69.88s71.31-32.34,71.31-69.88c0-37.54-23.24-69.88-71.31-69.88Z"/><path class="cls-2" d="m1674.9,200.73h-49.49s-97.55-191.97-97.55-191.97h59.6s70.09,148.5,70.09,148.5l69.8-148.5h46.52s-98.97,191.97-98.97,191.97Z"/><path class="cls-2" d="m1413.78,206.99c-67.4,0-123.43-37.26-123.43-102.39,0-64.85,56.03-102.1,123.43-102.1,67.41,0,123.43,37.26,123.43,102.1,0,65.13-56.03,102.39-123.43,102.39Zm0-172.27c-48.06,0-71.31,32.34-71.31,69.88,0,37.54,23.24,69.88,71.31,69.88s71.31-32.34,71.31-69.88c0-37.54-23.24-69.88-71.31-69.88Z"/><g><path d="m1935.8,67.5c-11.34-15.03-30.39-32.78-68.87-32.78-25.1,0-55.43,10.19-54.82,26.76.66,17.97,40.8,20.68,68.34,23.43,57.86,5.78,97.59,25.34,97.59,56.69,0,33.66-45.06,65.39-111.79,65.39-48.11,0-90.3-20.83-106.39-46.19l39.43-27.96c16.5,27,44.26,38.34,70.45,38.34,31.53,0,58.51-9.35,58.51-29.04,0-14.38-29.26-17.68-38.85-19.35-23.5-4.08-47.5-4.78-71.1-8.46-24.33-3.79-50.74-21.86-50.74-52,0-26.11,26.59-59.84,100.25-59.84,44.38,0,83.14,21.11,98.33,39.35l-30.35,25.65Z"/><path class="cls-1" d="m1935.8,67.5c-11.34-15.03-30.39-32.78-68.87-32.78-25.1,0-55.43,10.19-54.82,26.76.66,17.97,40.8,20.68,68.34,23.43,57.86,5.78,97.59,25.34,97.59,56.69,0,33.66-45.06,65.39-111.79,65.39-48.11,0-90.3-20.83-106.39-46.19l39.43-27.96c16.5,27,44.26,38.34,70.45,38.34,31.53,0,58.51-9.35,58.51-29.04,0-14.38-29.26-17.68-38.85-19.35-23.5-4.08-47.5-4.78-71.1-8.46-24.33-3.79-50.74-21.86-50.74-52,0-26.11,26.59-59.84,100.25-59.84,44.38,0,83.14,21.11,98.33,39.35l-30.35,25.65Z"/></g></g></g></svg>