<?xml version="1.0" encoding="UTF-8"?>
<svg id="Layer_3" xmlns="http://www.w3.org/2000/svg" width="1" height="1" viewBox="0 0 1 1">
    <defs>
        <clipPath id="ntLogo">
            <path d="m232.446,203.056h-44.856S51.198,67.313,51.198,67.313l3.493,135.743H5.773s0-191.975,0-191.975h45.994s135.255,131.191,135.255,131.191l-3.493-131.191h48.918s0,191.975,0,191.975Z"/>
            <path d="m380.057,209.313c-67.404,0-123.433-37.257-123.433-102.386,0-64.845,56.029-102.104,123.433-102.104,67.404,0,123.433,37.258,123.433,102.104,0,65.129-56.029,102.386-123.433,102.386Zm0-172.267c-48.065,0-71.306,32.339-71.306,69.881,0,37.541,23.241,69.879,71.306,69.879,48.065,0,71.306-32.339,71.306-69.879,0-37.543-23.241-69.881-71.306-69.881Z"/>
            <path d="m704.314,47.039h-79.674s1.747,156.017,1.747,156.017h-46.359s1.747-156.017,1.747-156.017h-79.674s0-35.958,0-35.958h202.214s0,35.958,0,35.958Z"/>
            <path d="m829.558,209.313c-67.404,0-123.433-37.257-123.433-102.386,0-64.845,56.029-102.104,123.433-102.104,67.404,0,123.433,37.258,123.433,102.104,0,65.129-56.029,102.386-123.433,102.386Zm0-172.267c-48.065,0-71.306,32.339-71.306,69.881,0,37.541,23.241,69.879,71.306,69.879,48.065,0,71.306-32.339,71.306-69.879,0-37.543-23.241-69.881-71.306-69.881Z"/>
            <path d="m1189.927,203.056h-52.352s-62.509-73.378-62.509-73.378h-51.641s0,73.378,0,73.378h-46.359s0-191.975,0-191.975h0c94.077-6.258,199.853-13.466,199.853,59.6,0,35.072-31.9,50.235-50.789,56.127l63.797,76.248Zm-166.502-162.571s0,40.539,0,58.411c51.532,0,112.187,2.608,112.248-29.226.082-42.676-112.263-29.184-112.248-29.185Z"/>
            <path d="m1266.315,203.056h-46.643s0-191.975,0-191.975h46.643s0,191.975,0,191.975Z"/>
            <path d="m1417.049,209.312c-67.404,0-123.433-37.257-123.433-102.386,0-64.845,56.029-102.104,123.433-102.104,67.405,0,123.433,37.258,123.433,102.104,0,65.129-56.028,102.386-123.433,102.386Zm0-172.267c-48.065,0-71.306,32.339-71.306,69.881,0,37.541,23.241,69.879,71.306,69.879s71.306-32.339,71.306-69.879c0-37.543-23.241-69.881-71.306-69.881Z"/>
            <path d="m1678.176,203.056h-49.487s-97.552-191.975-97.552-191.975h59.602s70.091,148.502,70.091,148.502l69.798-148.502h46.522s-98.974,191.975-98.974,191.975Z"/>
            <path d="m1417.049,209.312c-67.404,0-123.433-37.257-123.433-102.386,0-64.845,56.029-102.104,123.433-102.104,67.405,0,123.433,37.258,123.433,102.104,0,65.129-56.028,102.386-123.433,102.386Zm0-172.267c-48.065,0-71.306,32.339-71.306,69.881,0,37.541,23.241,69.879,71.306,69.879s71.306-32.339,71.306-69.879c0-37.543-23.241-69.881-71.306-69.881Z"/>
            <path d="m1939.071,69.822c-11.339-15.029-30.395-32.776-68.874-32.776-25.095,0-55.429,10.187-54.822,26.76.659,17.967,40.795,20.679,68.338,23.43,57.862,5.779,97.594,25.341,97.594,56.687,0,33.657-45.059,65.391-111.786,65.391-48.115,0-90.299-20.832-106.391-46.185l39.43-27.965c16.502,27.003,44.257,38.336,70.454,38.336,31.532,0,58.512-9.348,58.513-29.04,0-14.375-29.263-17.68-38.849-19.345-23.501-4.082-47.503-4.783-71.098-8.458-24.334-3.791-50.745-21.857-50.745-51.995,0-26.115,26.588-59.836,100.252-59.836,44.383,0,83.141,21.106,98.331,39.351l-30.348,25.647Z"/>
        </clipPath>
    </defs>
</svg>