<?xml version="1.0" encoding="UTF-8"?>
<svg id="Layer_2" data-name="Layer 2" xmlns="http://www.w3.org/2000/svg" viewBox="0 0 2148.06 481.1">
  <defs>
    <style>
      .cls-1 {
        stroke-width: 0px;
      }
    </style>
  </defs>
  <g id="Layer_1-2" data-name="Layer 1">
    <g>
      <path class="cls-1" d="m0,336.45c0-50.97,40.6-66.31,88.41-72.63,43.31-5.41,58.64-9.92,58.64-25.71,0-14.89-9.47-24.81-31.58-24.81-23.46,0-35.19,10.37-37.44,29.77H10.38c1.8-42.85,34.73-79.39,104.65-79.39,34.73,0,58.19,6.32,74.88,18.94,19.85,14.44,29.32,36.99,29.32,65.86v116.38c0,18.5,1.8,28.87,8.12,32.93v3.16h-71.27c-3.61-4.96-5.86-13.98-7.67-25.71h-.9c-13.53,19.4-33.83,31.58-68.57,31.58-46.01,0-78.94-24.81-78.94-70.37Zm148.86-18.04v-27.52c-9.47,4.96-23.01,8.57-37.89,12.18-28.42,6.31-40.15,13.53-40.15,31.12,0,18.49,13.53,25.71,31.58,25.71,27.52,0,46.46-16.69,46.46-41.5Z"/>
      <path class="cls-1" d="m254.86,170h70.82v31.58h1.35c17.14-24.81,39.24-38.34,71.27-38.34,50.52,0,80.3,36.09,80.3,87.51v150.21h-73.53v-135.33c0-24.36-12.18-41.05-36.09-41.05s-40.6,20.3-40.6,48.72v127.66h-73.53v-230.96Z"/>
      <path class="cls-1" d="m501.6,285.93c0-69.47,49.62-122.25,123.6-122.25s123.15,52.78,123.15,122.25-48.72,122.25-123.15,122.25-123.6-52.78-123.6-122.25Zm172.32,0c0-41.95-17.14-70.37-49.17-70.37s-48.72,28.42-48.72,70.37,16.69,69.92,48.72,69.92,49.17-27.97,49.17-69.92Z"/>
      <path class="cls-1" d="m786.68,340.06v-124.05h-30.67v-46.01h30.67v-73.08h71.72v73.08h41.95v46.01h-41.95v108.26c0,18.04,9.92,22.56,25.71,22.56,6.31,0,13.53-.45,16.24-.45v53.68c-6.31,1.8-20.3,3.61-40.15,3.61-42.85,0-73.53-13.98-73.53-63.6Z"/>
      <path class="cls-1" d="m926.97,78.42h73.53v119.99h1.35c16.69-22.1,36.54-35.19,68.57-35.19,50.52,0,80.3,36.09,80.3,87.51v150.21h-73.53v-135.33c0-24.36-12.18-41.05-36.09-41.05s-40.6,20.3-40.6,48.72v127.66h-73.53V78.42Z"/>
      <path class="cls-1" d="m1173.71,285.02c0-69.02,48.27-121.8,118.64-121.8,32.93,0,59.09,10.83,78.94,28.87,27.52,25.26,41.05,65.41,40.6,112.32h-166c4.51,31.13,21.65,50.52,51.88,50.52,19.4,0,32.03-8.57,38.34-23.01h71.72c-4.96,20.75-18.49,40.6-38.79,54.58-19.4,13.53-42.85,21.2-72.18,21.2-76.24,0-123.15-52.78-123.15-122.7Zm163.75-24.36c-2.71-27.52-19.85-45.11-43.76-45.11-27.97,0-42.4,17.59-47.36,45.11h91.12Z"/>
      <path class="cls-1" d="m1436.69,170h70.37v36.09h1.35c16.24-27.52,35.19-39.7,63.15-39.7,6.77,0,11.28.45,14.44,1.8v63.15h-1.8c-45.11-6.31-73.98,15.79-73.98,65.86v103.75h-73.53v-230.96Z"/>
    </g>
    <path class="cls-1" d="m1907.51,0c-132.85,0-240.55,107.7-240.55,240.55s107.7,240.55,240.55,240.55,240.55-107.7,240.55-240.55S2040.36,0,1907.51,0Zm146.12,239.55c-2.22,1.14-2.22,1.16-.52,2.9,7.75,7.97,11.52,17.56,11.56,28.63.04,10.02-.04,20.04.05,30.06.02,1.9-.52,2.51-2.44,2.39-10.78-.68-17.85-9.59-17.79-17.98.04-6.33.26-12.67-1.66-18.84-1.78-5.74-4.76-10.73-8.84-15.12-1.12-1.2-1.86-1.05-3.02-.21-3.52,2.56-6.52,5.47-7.23,10.01-.86,5.58,2.54,9.04,6.35,12.15,1.88,1.53,4.02,2.73,6.44,4.35-8.77.4-16.95-.05-24.75-3.39-6.2-2.65-9.97-7.29-10.78-13.97-.74-6.03,1.8-10.95,6.23-14.91,2.6-2.33,5.67-3.9,9.01-4.95.72-.23,1.56-.3,2.22-1.07-5.96-4.39-11.91-8.78-17.86-13.17-14.81-10.92-29.52-22.01-44.48-32.72-10.17-7.28-21.22-7.91-32.05-1.66-25.58,14.77-50.99,29.84-76.46,44.8-.54.32-1.18.52-1.64,1.4,3.88-.69,7.52-1.38,11.17-1.99,7.22-1.21,14.47-2.11,21.75-2.89,12.09-1.3,24.22-2.09,36.37-2.36,13.54-.3,27.09-.39,40.63-.05,6.47.16,11.49,3.77,14.9,9.37.27.45.84,1.02.37,1.52-.24.26-.95.14-1.44.08-12.46-1.52-24.95-2.03-37.48-1.33-5.74.32-11.5.54-17.23,1.06-6.43.58-12.86,1.29-19.24,2.24-11.98,1.77-23.89,3.97-35.67,6.82-25.17,6.08-49.7,13.95-72.77,25.96-7.15,3.72-13.75,8.37-20.82,12.24-11.65,6.37-23.79,11.43-36.89,13.94-7.09,1.35-14.23,2.06-21.44,1.03-.63-.09-1.23-.32-1.85-.49.15-.97.98-1.1,1.55-1.45,71.12-43.8,142.26-87.58,213.39-131.36,12.23-7.53,24.8-6.89,36.41,1.61,26.16,19.16,52.42,38.18,78.51,57.44,3.06,2.26,5.47,2.57,9.04,1.33,22.42-7.77,44.94-15.26,67.42-22.84.73-.25,1.48-.46,2.48-.77,0,1.07.26,3.59-.42,3.94-20.25,9.6-40.27,18.73-61.09,28.24Z"/>
  </g>
</svg>