<?xml version="1.0" encoding="UTF-8"?>
<svg id="Layer_2" data-name="Layer 2" xmlns="http://www.w3.org/2000/svg" viewBox="0 0 1661.97 481.1">
  <defs>
    <style>
      .cls-1 {
        font-family: NHaasGroteskDSPro-75Bd, 'Neue Haas Grotesk Display Pro';
        font-size: 320px;
      }

      .cls-2 {
        letter-spacing: 0em;
      }

      .cls-3 {
        font-family: HelveticaNeue-Medium, 'Helvetica Neue';
        font-size: 80px;
        font-weight: 500;
      }

      .cls-4 {
        stroke-width: 0px;
      }

      .cls-5 {
        letter-spacing: 0em;
      }
    </style>
  </defs>
  <g id="Layer_1-2" data-name="Layer 1">
    <text class="cls-3" transform="translate(7.85 425.15)"><tspan x="0" y="0">Real Estate Agency</tspan></text>
    <text class="cls-1" transform="translate(0 307.23)"><tspan x="0" y="0">an</tspan><tspan class="cls-5" x="355.51" y="0">o</tspan><tspan class="cls-2" x="537.59" y="0">ther</tspan></text>
    <path class="cls-4" d="m1421.42,0c-132.85,0-240.55,107.7-240.55,240.55s107.7,240.55,240.55,240.55,240.55-107.7,240.55-240.55S1554.27,0,1421.42,0Zm146.12,239.55c-2.22,1.14-2.22,1.16-.52,2.9,7.75,7.97,11.52,17.56,11.56,28.63.04,10.02-.04,20.04.05,30.06.02,1.9-.52,2.51-2.44,2.39-10.78-.68-17.85-9.59-17.79-17.98.04-6.33.26-12.67-1.66-18.84-1.78-5.74-4.76-10.73-8.84-15.12-1.12-1.2-1.86-1.05-3.02-.21-3.52,2.56-6.52,5.47-7.23,10.01-.86,5.58,2.54,9.04,6.35,12.15,1.88,1.53,4.02,2.73,6.44,4.35-8.77.4-16.95-.05-24.75-3.39-6.2-2.65-9.97-7.29-10.78-13.97-.74-6.03,1.8-10.95,6.23-14.91,2.6-2.33,5.67-3.9,9.01-4.95.72-.23,1.56-.3,2.22-1.07-5.96-4.39-11.91-8.78-17.86-13.17-14.81-10.92-29.52-22.01-44.48-32.72-10.17-7.28-21.22-7.91-32.05-1.66-25.58,14.77-50.99,29.84-76.46,44.8-.54.32-1.18.52-1.64,1.4,3.88-.69,7.52-1.38,11.17-1.99,7.22-1.21,14.47-2.11,21.75-2.89,12.09-1.3,24.22-2.09,36.37-2.36,13.54-.3,27.09-.39,40.63-.05,6.47.16,11.49,3.77,14.9,9.37.27.45.84,1.02.37,1.52-.24.26-.95.14-1.44.08-12.46-1.52-24.95-2.03-37.48-1.33-5.74.32-11.5.54-17.23,1.06-6.43.58-12.86,1.29-19.24,2.24-11.98,1.77-23.89,3.97-35.67,6.82-25.17,6.08-49.7,13.95-72.77,25.96-7.15,3.72-13.75,8.37-20.82,12.24-11.65,6.37-23.79,11.43-36.89,13.94-7.09,1.35-14.23,2.06-21.44,1.03-.63-.09-1.23-.32-1.85-.49.15-.97.98-1.1,1.55-1.45,71.12-43.8,142.26-87.58,213.39-131.36,12.23-7.53,24.8-6.89,36.41,1.61,26.16,19.16,52.42,38.18,78.51,57.44,3.06,2.26,5.47,2.57,9.04,1.33,22.42-7.77,44.94-15.26,67.42-22.84.73-.25,1.48-.46,2.48-.77,0,1.07.26,3.59-.42,3.94-20.25,9.6-40.27,18.73-61.09,28.24Z"/>
  </g>
</svg>