<svg xmlns="http://www.w3.org/2000/svg" viewBox="0 0 2834.65 1907.83">
    <defs>
        <style>.cls-1{fill: rgba(0,0,0,0)}</style>
    </defs>
    <g id="Layer_2">
        <g id="Layer_1-2">
            <path class="cls-1" d="M565,1696.11H515.56L365.14,1546.39,369,1696.11H315V1484.37h50.72l149.18,144.7-3.86-144.7h54Z"/>
            <path class="cls-1" d="M731.69,1703c-74.34,0-136.14-41.09-136.14-112.93,0-71.51,61.8-112.61,136.14-112.61s136.14,41.1,136.14,112.61C867.83,1661.92,806,1703,731.69,1703Zm0-191.93c-53,0-78.64,37.6-78.64,79s25.63,79,78.64,79,78.64-37.59,78.64-79S784.7,1511.08,731.69,1511.08Z"/>
            <path class="cls-1" d="M1093.17,1527.89l-89.8-3.86,3.85,172.08H956.09L960,1524l-89.8,3.86v-43.52h223Z"/>
            <path class="cls-1" d="M1235.16,1703c-74.35,0-136.14-41.09-136.14-112.93,0-71.51,61.79-112.61,136.14-112.61s136.13,41.1,136.13,112.61C1371.29,1661.92,1309.5,1703,1235.16,1703Zm0-191.93c-53,0-78.65,37.6-78.65,79s25.63,79,78.65,79,78.64-37.59,78.64-79S1288.17,1511.08,1235.16,1511.08Z"/>
            <path class="cls-1" d="M1642.24,1696.11H1576.8l-57.39-80.93h-66.58v80.93H1401.7V1484.37h0c103.75-6.9,216.56-20,216.56,65.74,0,33.54-26.54,52.49-47.38,59ZM1452.83,1516.8v64.43c56.83,0,118,2.87,118-32.24C1570.94,1501.92,1452.81,1516.81,1452.83,1516.8Z"/>
            <path class="cls-1" d="M1722.64,1696.11H1671.2V1484.37h51.44Z"/>
            <path class="cls-1" d="M1894.66,1703c-74.34,0-136.13-41.09-136.13-112.93,0-71.51,61.79-112.61,136.13-112.61s136.14,41.1,136.14,112.61C2030.8,1661.92,1969,1703,1894.66,1703Zm0-191.93c-53,0-78.64,37.6-78.64,79s25.63,79,78.64,79,78.65-37.59,78.65-79S1947.67,1511.08,1894.66,1511.08Z"/>
            <path class="cls-1" d="M2186.52,1696.11h-54.58l-107.6-211.74h65.74l78.11,165.49,78.1-165.49h49.38Z"/>
            <path class="cls-1" d="M2465.33,1549.12c-8.16-18.82-24.87-36-69.59-36-34.11,0-47.95,15.22-47.95,27,0,31.6,50.84,30.23,81.27,35.54,38.21,6.66,78,18.41,78,58.87,0,40-30.67,68.16-104.15,68.16-68.41,0-99.5-24.2-112.31-58.19l42.86-14c10.51,23,38,31.46,69.36,31.46,44.47,0,60.11-12.43,59.92-29.17-.3-25.15-40.61-24.94-85.72-29.33-35.78-3.49-77.67-16.38-77.67-60.47,0-44.83,43.26-65.52,103.83-65.52,41.9,0,84.35,15.92,99.84,62.07Z"/>
        </g>
    </g>
</svg>